<?xml version="1.0" standalone="no"?>
<!DOCTYPE svg PUBLIC "-//W3C//DTD SVG 20010904//EN"
 "http://www.w3.org/TR/2001/REC-SVG-20010904/DTD/svg10.dtd">
<svg version="1.0" xmlns="http://www.w3.org/2000/svg"
 width="592.000000pt" height="592.000000pt" viewBox="0 0 592.000000 592.000000"
 preserveAspectRatio="xMidYMid meet">
<metadata>
Created by potrace 1.11, written by Peter Selinger 2001-2013
</metadata>
<g transform="translate(0.000000,592.000000) scale(0.100000,-0.100000)"
fill="#000000" stroke="none">
<path d="M2246 4840 c-2 -3 -2 -252 -1 -555 0 -302 -2 -552 -6 -555 -4 -3
-256 -5 -558 -4 -416 2 -551 0 -552 -9 0 -7 -1 -41 -1 -77 2 -271 1 -1119 -1
-1220 l-2 -125 195 -2 c107 -1 262 -3 344 -3 l148 0 -32 -37 c-183 -212 -465
-452 -678 -577 -30 -17 -70 -41 -90 -53 -81 -50 -335 -173 -470 -228 -78 -32
-141 -59 -140 -61 10 -9 157 -18 298 -18 200 -1 308 11 470 51 36 8 70 16 75
18 6 1 17 4 25 7 8 3 49 16 90 28 93 29 308 114 355 142 11 6 52 27 90 47 39
19 72 38 75 41 3 4 13 9 22 13 17 6 247 155 258 167 3 3 32 25 65 49 33 25 62
47 65 51 3 3 18 15 33 27 152 117 742 700 1023 1012 27 29 65 71 84 91 19 21
60 66 90 101 30 35 66 75 80 89 14 15 50 55 80 91 72 84 103 119 115 133 6 6
55 63 109 126 55 63 103 117 108 118 4 2 8 7 8 12 0 26 278 304 420 420 30 25
61 51 68 58 49 45 330 232 350 232 6 0 12 4 14 9 7 21 362 178 464 206 9 3 64
140 64 160 0 6 -74 1 -155 -11 -16 -2 -50 -7 -75 -9 -25 -3 -56 -7 -70 -10
-38 -8 -58 -12 -140 -25 -131 -21 -367 -79 -500 -123 -36 -12 -67 -22 -70 -22
-23 -3 -179 -69 -285 -121 -107 -52 -336 -189 -355 -214 -13 -17 -77 -59 -82
-54 -3 3 -4 42 -2 87 2 45 6 184 8 308 l4 225 -715 0 c-393 -1 -716 -3 -717
-6z"/>
<path d="M4549 3801 c-57 -12 -145 -59 -186 -99 -21 -21 -76 -80 -123 -132
-47 -52 -94 -104 -105 -116 -11 -12 -47 -52 -80 -90 -33 -37 -65 -72 -70 -78
-6 -6 -62 -69 -125 -141 -63 -71 -119 -135 -125 -141 -5 -6 -29 -33 -52 -61
-24 -27 -53 -61 -65 -75 -55 -60 -174 -192 -191 -211 -16 -19 -99 -110 -200
-221 -58 -63 -337 -343 -414 -416 -149 -141 -256 -235 -368 -325 -28 -22 -56
-45 -62 -51 -7 -7 -28 -21 -46 -33 -40 -25 -83 -84 -92 -126 -4 -16 -8 -90
-10 -162 l-3 -133 52 0 c1324 -6 1401 -5 1403 15 2 11 4 259 5 550 l3 530 215
-2 c118 -1 235 -2 260 -3 25 -1 99 -1 165 0 66 1 125 0 130 -1 6 -1 15 0 20 1
6 1 53 4 105 6 233 9 265 15 253 48 -4 11 -7 319 -8 682 -1 722 2 677 -57 735
-48 46 -147 67 -229 50z"/>
</g>
</svg>
