<?xml version="1.0" encoding="UTF-8" ?>
<!DOCTYPE svg PUBLIC "-//W3C//DTD SVG 1.1//EN" "http://www.w3.org/Graphics/SVG/1.1/DTD/svg11.dtd">
<svg width="130pt" height="150pt" viewBox="0 0 130 150" version="1.1" xmlns="http://www.w3.org/2000/svg">
<g id="#e0e0e0ff">
<path fill="#e0e0e0" opacity="1.00" d=" M 35.48 38.93 C 38.03 26.97 48.49 17.08 60.66 15.49 C 75.18 13.02 90.31 23.06 93.98 37.26 C 95.72 44.62 95.31 52.80 91.44 59.46 C 85.85 70.41 73.04 76.78 60.93 75.27 C 52.56 73.85 44.66 69.22 39.99 62.05 C 35.53 55.36 33.35 46.81 35.48 38.93 Z" />
<path fill="#e0e0e0" opacity="1.00" d=" M 31.51 70.58 C 34.00 70.05 36.88 69.21 39.11 70.94 C 46.51 75.95 54.75 80.72 63.95 80.79 C 71.08 81.13 78.02 78.66 84.14 75.19 C 87.11 73.53 89.67 71.16 92.83 69.85 C 99.63 69.89 106.41 72.89 110.56 78.35 C 115.03 83.65 117.02 90.46 118.41 97.12 C 119.68 104.34 120.31 111.76 119.61 119.09 C 118.48 127.68 110.72 134.53 102.11 134.87 C 78.07 134.95 54.02 134.86 29.97 134.91 C 23.09 135.13 15.74 131.83 12.53 125.50 C 8.99 119.93 10.29 113.13 10.13 106.91 C 11.11 97.41 12.75 87.39 18.41 79.44 C 21.56 75.07 26.23 71.78 31.51 70.58 Z" />
</g>
</svg>
