<?xml version="1.0" encoding="UTF-8" ?>
<!DOCTYPE svg PUBLIC "-//W3C//DTD SVG 1.1//EN" "http://www.w3.org/Graphics/SVG/1.1/DTD/svg11.dtd">
<svg width="146pt" height="116pt" viewBox="0 0 146 116" version="1.1" xmlns="http://www.w3.org/2000/svg">
<g id="#fefefdff">
</g>
<g id="#f60509ff">
<path fill="#f60509" opacity="1.00" d=" M 3.86 3.33 C 24.83 3.26 45.80 3.29 66.77 3.32 C 66.77 5.75 66.76 8.19 66.75 10.62 C 45.88 10.64 25.01 10.59 4.14 10.65 C 3.94 8.22 3.87 5.78 3.86 3.33 Z" />
<path fill="#f60509" opacity="1.00" d=" M 79.65 3.41 C 100.82 3.21 121.99 3.26 143.16 3.39 C 143.15 5.78 143.14 8.16 143.14 10.55 C 122.00 10.67 100.86 10.67 79.72 10.54 C 79.71 8.16 79.68 5.78 79.65 3.41 Z" />
<path fill="#f60509" opacity="1.00" d=" M 4.19 14.59 C 25.04 14.64 45.88 14.61 66.72 14.59 C 66.78 17.17 66.76 19.76 66.66 22.34 C 45.86 22.31 25.06 22.26 4.26 22.36 C 3.85 19.78 3.83 17.17 4.19 14.59 Z" />
<path fill="#f60509" opacity="1.00" d=" M 79.92 22.10 C 79.55 19.57 79.36 16.92 80.33 14.50 C 101.12 14.75 121.92 14.56 142.72 14.59 C 143.12 17.15 143.33 19.77 142.74 22.32 C 121.81 22.14 100.84 22.62 79.92 22.10 Z" />
<path fill="#f60509" opacity="1.00" d=" M 19.43 33.45 C 19.40 30.86 19.43 28.28 19.50 25.70 C 29.41 25.79 39.33 25.55 49.24 25.78 C 51.50 27.48 49.89 30.97 50.33 33.41 C 40.03 33.52 29.73 33.43 19.43 33.45 Z" />
<path fill="#f60509" opacity="1.00" d=" M 96.38 33.47 C 96.36 30.86 96.38 28.26 96.47 25.66 C 105.66 25.72 114.85 25.73 124.04 25.68 C 125.26 25.66 126.42 25.93 127.51 26.50 C 127.35 28.80 127.28 31.10 127.29 33.40 C 116.99 33.53 106.68 33.42 96.38 33.47 Z" />
<path fill="#f60509" opacity="1.00" d=" M 19.37 37.29 C 29.70 37.28 40.03 37.14 50.36 37.35 C 50.35 39.72 50.33 42.09 50.32 44.46 C 40.04 44.62 29.75 44.48 19.46 44.54 C 19.43 42.12 19.40 39.70 19.37 37.29 Z" />
<path fill="#f60509" opacity="1.00" d=" M 96.36 37.26 C 106.70 37.32 117.04 37.14 127.38 37.35 C 127.37 39.72 127.32 42.09 127.32 44.47 C 117.01 44.59 106.70 44.47 96.40 44.53 C 96.39 42.11 96.36 39.69 96.36 37.26 Z" />
<path fill="#f60509" opacity="1.00" d=" M 19.44 48.40 C 24.46 48.36 29.48 48.36 34.50 48.41 C 34.49 50.82 34.48 53.24 34.47 55.66 C 29.44 55.69 24.41 55.71 19.38 55.65 C 19.39 53.23 19.41 50.81 19.44 48.40 Z" />
<path fill="#f60509" opacity="1.00" d=" M 111.43 48.42 C 116.75 48.40 122.06 48.34 127.38 48.48 C 127.35 50.84 127.33 53.21 127.34 55.58 C 122.03 55.75 116.73 55.70 111.42 55.64 C 111.44 53.23 111.44 50.82 111.43 48.42 Z" />
<path fill="#f60509" opacity="1.00" d=" M 19.44 59.53 C 24.46 59.52 29.48 59.47 34.50 59.53 C 34.49 61.93 34.48 64.33 34.50 66.74 C 29.49 67.53 24.44 66.34 19.39 66.74 C 19.41 64.34 19.42 61.93 19.44 59.53 Z" />
<path fill="#f60509" opacity="1.00" d=" M 111.46 59.54 C 116.74 59.48 122.02 59.51 127.30 59.54 C 127.32 61.85 127.35 64.15 127.38 66.46 C 126.26 66.66 125.15 66.90 124.05 67.18 C 119.83 67.28 115.57 67.48 111.41 66.69 C 111.45 64.30 111.45 61.92 111.46 59.54 Z" />
<path fill="#f60509" opacity="1.00" d=" M 19.45 78.38 C 19.42 75.79 19.43 73.21 19.46 70.63 C 29.76 70.65 40.05 70.64 50.34 70.66 C 50.36 73.22 50.35 75.79 50.32 78.35 C 40.03 78.35 29.74 78.34 19.45 78.38 Z" />
<path fill="#f60509" opacity="1.00" d=" M 96.43 78.41 C 96.38 75.82 96.37 73.23 96.44 70.65 C 106.43 70.58 116.43 70.85 126.42 70.48 C 128.05 72.77 127.13 75.74 127.25 78.35 C 116.98 78.41 106.71 78.31 96.43 78.41 Z" />
<path fill="#f60509" opacity="1.00" d=" M 19.43 89.51 C 19.41 86.90 19.41 84.30 19.47 81.70 C 29.14 81.66 38.82 81.81 48.50 81.63 L 48.71 82.52 C 49.13 82.44 49.97 82.28 50.39 82.20 C 50.35 84.63 50.33 87.05 50.33 89.48 C 40.03 89.51 29.73 89.52 19.43 89.51 Z" />
<path fill="#f60509" opacity="1.00" d=" M 96.41 89.50 C 96.37 86.90 96.37 84.29 96.46 81.69 C 106.34 81.71 116.23 81.76 126.11 81.68 C 126.44 81.94 127.11 82.46 127.44 82.72 C 127.30 84.95 127.33 87.19 127.31 89.43 C 117.01 89.59 106.71 89.45 96.41 89.50 Z" />
<path fill="#f60509" opacity="1.00" d=" M 3.90 93.31 C 24.86 93.24 45.82 93.29 66.78 93.28 C 66.74 95.71 66.76 98.14 66.80 100.57 C 45.83 100.61 24.87 100.62 3.90 100.55 C 3.89 98.14 3.89 95.73 3.90 93.31 Z" />
<path fill="#f60509" opacity="1.00" d=" M 79.69 93.35 C 100.84 93.20 121.98 93.26 143.13 93.33 C 143.13 95.74 143.14 98.15 143.15 100.56 C 122.01 100.63 100.87 100.63 79.73 100.54 C 79.71 98.14 79.71 95.74 79.69 93.35 Z" />
<path fill="#f60509" opacity="1.00" d=" M 3.89 104.48 C 24.83 104.42 45.76 104.44 66.70 104.46 C 66.73 106.87 66.77 109.27 66.78 111.68 C 45.82 111.75 24.86 111.76 3.90 111.68 C 3.90 109.28 3.88 106.88 3.89 104.48 Z" />
<path fill="#f60509" opacity="1.00" d=" M 79.71 104.51 C 100.85 104.39 121.99 104.41 143.13 104.50 C 143.14 106.88 143.15 109.25 143.16 111.63 C 122.01 111.80 100.86 111.76 79.72 111.66 C 79.70 109.27 79.73 106.89 79.71 104.51 Z" />
</g>
</svg>
