<?xml version="1.0" encoding="UTF-8" ?>
<!DOCTYPE svg PUBLIC "-//W3C//DTD SVG 1.1//EN" "http://www.w3.org/Graphics/SVG/1.1/DTD/svg11.dtd">
<svg width="59pt" height="50pt" viewBox="0 0 59 50" version="1.1" xmlns="http://www.w3.org/2000/svg">
<g id="#fbfafaff">
</g>
<g id="#eb0f28ff">
<path fill="#eb0f28" opacity="1.00" d=" M 22.35 6.19 C 27.13 6.29 31.90 6.23 36.67 6.19 C 36.62 8.31 36.57 10.42 36.52 12.54 C 41.37 8.42 47.71 7.13 53.87 6.43 C 53.72 6.84 53.43 7.67 53.29 8.08 C 48.34 9.61 44.07 12.80 40.63 16.62 C 35.27 22.92 29.76 29.14 23.57 34.65 C 18.25 39.20 10.93 42.40 3.89 41.17 C 9.32 39.24 14.37 36.15 18.06 31.67 C 15.78 31.63 13.49 31.66 11.20 31.69 C 11.32 26.91 11.32 22.13 11.21 17.35 C 14.94 17.35 18.66 17.36 22.38 17.38 C 22.38 13.65 22.38 9.92 22.35 6.19 Z" />
</g>
<g id="#444444ff">
<path fill="#444444" opacity="1.00" d=" M 43.06 18.05 C 44.18 16.47 47.25 15.75 48.14 17.85 C 48.32 22.41 48.03 26.98 48.26 31.55 C 44.46 31.93 40.64 31.72 36.84 31.72 C 36.74 35.37 36.79 39.02 36.77 42.68 C 31.92 42.63 27.08 42.63 22.24 42.65 C 22.42 41.16 21.77 39.21 23.42 38.36 C 30.90 32.54 36.65 24.94 43.06 18.05 Z" />
</g>
</svg>
